0
SECTION
2
HEADER
9
$INSUNITS
70
4
9
$ACADVER
1
AC1014
9
$HANDSEED
5
FFFF
0
ENDSEC
0
SECTION
2
TABLES
0
TABLE
2
VPORT
5
8
100
AcDbSymbolTable
0
ENDTAB
0
TABLE
2
LTYPE
5
5
100
AcDbSymbolTable
0
LTYPE
5
14
100
AcDbSymbolTableRecord
100
AcDbLinetypeTableRecord
2
BYBLOCK
70
0
0
LTYPE
5
15
100
AcDbSymbolTableRecord
100
AcDbLinetypeTableRecord
2
BYLAYER
70
0
0
ENDTAB
0
TABLE
2
LAYER
5
2
100
AcDbSymbolTable
70
2
0
LAYER
5
50
100
AcDbSymbolTableRecord
100
AcDbLayerTableRecord
2
0
70
0
6
CONTINUOUS
0
ENDTAB
0
TABLE
2
STYLE
5
3
100
AcDbSymbolTable
70
1
0
STYLE
5
11
100
AcDbSymbolTableRecord
100
AcDbTextStyleTableRecord
2
STANDARD
70
0
0
ENDTAB
0
TABLE
2
VIEW
5
6
100
AcDbSymbolTable
70
0
0
ENDTAB
0
TABLE
2
UCS
5
7
100
AcDbSymbolTable
70
0
0
ENDTAB
0
TABLE
2
APPID
5
9
100
AcDbSymbolTable
70
2
0
APPID
5
12
100
AcDbSymbolTableRecord
100
AcDbRegAppTableRecord
2
ACAD
70
0
0
ENDTAB
0
TABLE
2
DIMSTYLE
5
A
100
AcDbSymbolTable
70
1
0
ENDTAB
0
TABLE
2
BLOCK_RECORD
5
1
100
AcDbSymbolTable
70
1
0
BLOCK_RECORD
5
1F
100
AcDbSymbolTableRecord
100
AcDbBlockTableRecord
2
*MODEL_SPACE
0
BLOCK_RECORD
5
1B
100
AcDbSymbolTableRecord
100
AcDbBlockTableRecord
2
*PAPER_SPACE
0
ENDTAB
0
ENDSEC
0
SECTION
2
BLOCKS
0
BLOCK
5
20
100
AcDbEntity
100
AcDbBlockBegin
2
*MODEL_SPACE
0
ENDBLK
5
21
100
AcDbEntity
100
AcDbBlockEnd
0
BLOCK
5
1C
100
AcDbEntity
100
AcDbBlockBegin
2
*PAPER_SPACE
0
ENDBLK
5
1D
100
AcDbEntity
100
AcDbBlockEnd
0
ENDSEC
0
SECTION
2
ENTITIES
0
LWPOLYLINE
5
100
100
AcDbEntity
8
0
100
AcDbPolyline
90
12
70
1
43
0.0
10
337.5
20
-58.749999999999964
10
333.5
20
-58.749999999999964
10
333.5
20
-78.749999999999972
10
337.5
20
-78.749999999999972
10
337.5
20
-83.749999999999972
10
408.5
20
-83.749999999999972
10
408.5
20
-78.749999999999972
10
412.5
20
-78.749999999999972
10
412.5
20
-58.749999999999964
10
408.5
20
-58.749999999999964
10
408.5
20
-53.749999999999964
10
337.5
20
-53.749999999999964
0
LWPOLYLINE
5
101
100
AcDbEntity
8
0
100
AcDbPolyline
90
12
70
1
43
0.0
10
337.5
20
-98.749999999999972
10
333.5
20
-98.749999999999972
10
333.5
20
-118.74999999999997
10
337.5
20
-118.74999999999997
10
337.5
20
-123.74999999999997
10
408.5
20
-123.74999999999997
10
408.5
20
-118.74999999999997
10
412.5
20
-118.74999999999997
10
412.5
20
-98.749999999999972
10
408.5
20
-98.749999999999972
10
408.5
20
-93.749999999999972
10
337.5
20
-93.749999999999972
0
LWPOLYLINE
5
102
100
AcDbEntity
8
0
100
AcDbPolyline
90
12
70
1
43
0.0
10
337.5
20
-18.749999999999961
10
333.5
20
-18.749999999999964
10
333.5
20
-38.749999999999964
10
337.5
20
-38.749999999999964
10
337.5
20
-43.749999999999964
10
408.5
20
-43.749999999999964
10
408.5
20
-38.749999999999964
10
412.5
20
-38.749999999999964
10
412.5
20
-18.749999999999961
10
408.5
20
-18.749999999999961
10
408.5
20
-13.749999999999963
10
337.5
20
-13.749999999999963
0
LWPOLYLINE
5
103
100
AcDbEntity
8
0
100
AcDbPolyline
90
4
70
1
43
0.0
10
630
20
-10
10
430
20
-10
10
430
20
-160
10
630
20
-160
0
LWPOLYLINE
5
104
100
AcDbEntity
8
0
100
AcDbPolyline
90
32
70
1
43
0.0
10
684.0833333929379
20
-214.75000000000006
10
704.0833333929379
20
-214.75000000000006
10
704.0833333929379
20
-218.75000000000003
10
750.83333339293802
20
-218.75000000000003
10
750.83333339293802
20
-214.75000000000006
10
770.83333339293802
20
-214.75000000000006
10
770.83333339293802
20
-218.75000000000003
10
812.5
20
-218.75000000000003
10
812.5
20
-200.00000000000003
10
816.5
20
-200.00000000000003
10
816.5
20
-181.25000000000003
10
812.5
20
-181.25000000000003
10
812.5
20
-143.75
10
816.5
20
-143.74999776482582
10
816.5
20
-124.99999776482582
10
812.5
20
-124.99999776482582
10
812.5
20
-106.24999776482582
10
782.5
20
-91.249997764825821
42
0.41421356237309365
10
767.49999999999989
20
-106.24999776482585
42
-0.29857054945818229
10
790.13688931363527
20
-180.42057620967668
42
-0.81780956891266843
10
732.5
20
-168.75000000000003
10
701.98651123664513
20
-92.460835636888106
42
0.67713217315005403
10
667.5
20
-106.24999776482585
42
-0.23606797749978994
10
692.5
20
-168.75000000000003
42
-0.99999999999999989
10
632.49999999999989
20
-168.75000000000003
10
612.49999999999989
20
-168.75000000000003
10
612.49999999999989
20
-218.75000000000003
10
617.33333339293802
20
-218.75000000000003
10
617.33333339293802
20
-214.75000000000006
10
637.33333339293802
20
-214.75000000000006
10
637.33333339293802
20
-218.75000000000003
10
684.0833333929379
20
-218.75000000000003
0
LWPOLYLINE
5
105
100
AcDbEntity
8
0
100
AcDbPolyline
90
32
70
1
43
0.0
10
699.1666666070621
20
-18.75
10
699.1666666070621
20
-22.75
10
679.1666666070621
20
-22.75
10
679.1666666070621
20
-18.75
10
637.50000000000011
20
-18.75
10
637.50000000000011
20
-37.5
10
633.5
20
-37.5
10
633.5
20
-56.25
10
637.50000000000011
20
-56.25
10
637.50000000000011
20
-93.75
10
633.5
20
-93.750002235174179
10
633.5
20
-112.50000223517418
10
637.50000000000011
20
-112.50000223517418
10
637.50000000000011
20
-131.25000223517418
10
667.50000000000011
20
-146.25000223517418
42
0.41421356237309009
10
682.50000000000011
20
-131.25000223517424
42
-0.29857054945818212
10
659.86311068636473
20
-57.079423790323347
42
-0.81780956891266843
10
717.5
20
-68.75
10
748.01348876335487
20
-145.03916436311189
42
0.67713217315005425
10
782.5
20
-131.25000223517418
42
-0.23606797749978961
10
757.5
20
-68.75
42
-0.99999999999999989
10
817.5
20
-68.75
10
837.5
20
-68.75
10
837.5
20
-18.75
10
832.6666666070621
20
-18.75
10
832.6666666070621
20
-22.75
10
812.6666666070621
20
-22.75
10
812.6666666070621
20
-18.75
10
765.9166666070621
20
-18.75
10
765.9166666070621
20
-22.75
10
745.9166666070621
20
-22.75
10
745.9166666070621
20
-18.75
0
LWPOLYLINE
5
106
100
AcDbEntity
8
0
100
AcDbPolyline
90
4
70
1
43
0.0
10
250
20
0
10
850
20
0
10
850
20
-300
10
250
20
-300
0
LWPOLYLINE
5
107
100
AcDbEntity
8
0
100
AcDbPolyline
90
4
70
1
43
0.0
10
567.5
20
-103.75000223517418
10
567.5
20
-122.50000223517418
10
563.5
20
-122.50000223517418
10
563.5
20
-103.75000223517418
0
LWPOLYLINE
5
108
100
AcDbEntity
8
0
100
AcDbPolyline
90
4
70
1
43
0.0
10
492.5
20
-103.75000223517418
10
492.5
20
-122.50000223517418
10
488.5
20
-122.50000223517418
10
488.5
20
-103.75000223517418
0
LINE
5
109
100
AcDbEntity
8
0
100
AcDbLine
10
492.5
20
-66.25
30
0
11
492.5
21
-47.5
31
0
0
LINE
5
110
100
AcDbEntity
8
0
100
AcDbLine
10
488.5
20
-47.5
30
0
11
488.5
21
-66.25
31
0
0
LWPOLYLINE
5
111
100
AcDbEntity
8
0
100
AcDbPolyline
90
4
70
1
43
0.0
10
492.5
20
-47.5
10
492.5
20
-66.25
10
488.5
20
-66.25
10
488.5
20
-47.5
0
LINE
5
112
100
AcDbEntity
8
0
100
AcDbLine
10
563.5
20
-47.5
30
0
11
563.5
21
-66.25
31
0
0
LWPOLYLINE
5
113
100
AcDbEntity
8
0
100
AcDbPolyline
90
4
70
1
43
0.0
10
567.5
20
-47.5
10
567.5
20
-66.25
10
563.5
20
-66.25
10
563.5
20
-47.5
0
ENDSEC
0
SECTION
2
OBJECTS
0
DICTIONARY
5
C
100
AcDbDictionary
3
ACAD_GROUP
350
D
3
ACAD_MLINESTYLE
350
17
0
DICTIONARY
5
D
100
AcDbDictionary
0
DICTIONARY
5
1A
330
C
100
AcDbDictionary
0
DICTIONARY
5
17
100
AcDbDictionary
0
ENDSEC
0
EOF
